<?xml version="1.0" standalone="no"?>
<!DOCTYPE svg PUBLIC "-//W3C//DTD SVG 20010904//EN"
 "http://www.w3.org/TR/2001/REC-SVG-20010904/DTD/svg10.dtd">
<svg version="1.0" xmlns="http://www.w3.org/2000/svg"
 width="637.000000pt" height="637.000000pt" viewBox="0 0 637.000000 637.000000"
 preserveAspectRatio="xMidYMid meet">
<metadata>
Created by potrace 1.14, written by Peter Selinger 2001-2017
</metadata>
<g transform="translate(0.000000,637.000000) scale(0.100000,-0.100000)"
fill="#000000" stroke="none">
<path d="M3237 6364 c-1 -1 -41 -4 -88 -8 -48 -3 -93 -8 -100 -10 -8 -3 -33
-7 -56 -10 -143 -18 -414 -107 -577 -189 -541 -273 -938 -765 -1086 -1343 -22
-86 -24 -94 -35 -164 -4 -25 -9 -53 -10 -62 -31 -163 -23 -498 14 -679 7 -31
14 -67 16 -81 32 -173 153 -466 270 -648 49 -76 159 -227 179 -245 41 -37 38
-42 -27 -33 -97 13 -170 25 -199 34 -9 3 -25 6 -35 8 -86 18 -374 126 -495
187 -31 16 -60 29 -63 29 -11 0 8 -45 24 -58 160 -128 442 -265 621 -301 30
-6 69 -13 85 -17 17 -3 79 -9 140 -11 l110 -5 60 -52 c314 -272 693 -441 1105
-492 30 -4 66 -8 80 -10 39 -5 322 -5 350 0 14 3 54 7 88 11 262 23 633 158
872 317 149 99 181 124 313 248 333 311 582 812 623 1250 3 36 8 68 10 72 6 9
5 310 -1 363 -4 37 -7 66 -21 165 -3 19 -14 73 -25 120 -11 47 -22 92 -24 101
-2 8 -15 51 -30 95 -206 610 -689 1097 -1295 1305 -153 53 -327 92 -470 105
-62 6 -318 12 -323 8z"/>
<path d="M4455 1183 c-76 -186 -147 -358 -158 -383 -22 -51 -20 -47 -82 -200
-25 -63 -52 -130 -60 -148 -8 -18 -15 -37 -15 -42 0 -6 26 -10 59 -10 l59 0
26 63 c14 34 41 100 60 147 l33 85 214 0 213 0 57 -145 56 -145 62 -3 c33 -2
61 0 61 4 0 7 -104 275 -120 309 -5 11 -78 191 -161 400 -83 209 -154 386
-158 393 -4 7 -66 -132 -146 -325z m157 5 c85 -219 109 -280 126 -324 l20 -51
-168 0 c-151 0 -167 2 -160 16 18 35 154 386 152 394 -1 4 2 7 6 7 4 0 15 -19
24 -42z"/>
<path d="M3030 958 l0 -558 55 0 55 0 2 410 3 409 117 -132 c64 -73 137 -154
162 -182 26 -27 56 -61 68 -75 30 -35 162 -184 168 -190 3 -3 63 -69 133 -148
l127 -142 0 560 0 560 -55 0 -55 0 0 -412 -1 -413 -32 35 c-33 37 -59 66 -352
395 -258 289 -305 342 -352 394 l-43 46 0 -557z"/>
<path d="M1370 935 l0 -535 193 0 194 0 1 55 c0 53 -1 55 -26 56 -15 0 -78 1
-139 1 l-113 0 0 479 0 479 -55 0 -55 0 0 -535z"/>
<path d="M1982 1053 l3 -418 33 -66 c37 -77 82 -121 162 -158 47 -22 69 -26
155 -26 89 0 107 3 159 28 74 35 138 101 168 175 22 56 23 66 26 470 l3 412
-55 0 -56 0 0 -352 c-1 -390 -3 -432 -23 -480 -63 -151 -272 -190 -393 -74
-23 23 -48 59 -55 81 -10 29 -14 144 -17 433 l-3 392 -55 0 -55 0 3 -417z"/>
</g>
</svg>
